<svg id="Lager_1" data-name="Lager 1" xmlns="http://www.w3.org/2000/svg" viewBox="0 0 800 800"><defs><style>.cls-1{fill:#4d3671;}.cls-2{fill:#fff;}</style></defs><rect id="Purple" class="cls-1" width="800" height="800"/><path class="cls-2" d="M649.62,379.27a61.64,61.64,0,0,0-62,.36,59.78,59.78,0,0,0-22.07,23.85,72.64,72.64,0,0,0-8,34.32q0,19.27,8.14,34.45A58.79,58.79,0,0,0,588.77,496q15,8.55,34.5,8.55,31.28,0,47.56-21l-17.78-21.68a38.56,38.56,0,0,1-13,9.52,39.89,39.89,0,0,1-16,3q-13.08,0-21.86-7t-11.14-19h87.2q.64-9.39.64-10.11,0-20.24-7.82-35.53A56.61,56.61,0,0,0,649.62,379.27ZM590.7,426.48q1.71-12.53,9.43-19.75a26.81,26.81,0,0,1,19.07-7.23,26.31,26.31,0,0,1,18.85,7.35q7.71,7.35,9.43,19.63Z" transform="translate(-298.15 -38.65)"/><path class="cls-2" d="M818.49,315q-9.21,0-15,6a22.16,22.16,0,0,0,0,29.87q5.78,6,15,6t15-6.14q5.79-6.15,5.79-15.54a19.58,19.58,0,0,0-5.79-14.45Q827.7,315,818.49,315Z" transform="translate(-298.15 -38.65)"/><path class="cls-2" d="M488.38,373a58.92,58.92,0,0,0-58.92,58.92v72.6H464v-72.6a24.38,24.38,0,1,1,48.75,0v72.6H547.3v-72.6A58.92,58.92,0,0,0,488.38,373Z" transform="translate(-298.15 -38.65)"/><path class="cls-2" d="M907.92,373A58.92,58.92,0,0,0,849,431.93v72.6h34.54v-72.6a24.38,24.38,0,1,1,48.76,0v72.6h34.54v-72.6A58.92,58.92,0,0,0,907.92,373Z" transform="translate(-298.15 -38.65)"/><polygon class="cls-2" points="503.63 336.3 502.64 336.3 502.65 336.28 470.51 336.28 437.52 424.44 405.59 336.28 371.1 336.28 419.52 465.88 454.01 465.88 491.25 366.66 503.63 366.66 503.63 465.88 537.06 465.88 537.06 336.3 537.06 336.3 503.63 336.3"/></svg>