<svg id="Lager_1" data-name="Lager 1" xmlns="http://www.w3.org/2000/svg" viewBox="0 0 800 282.22"><defs><style>.cls-1{fill:#4d3671;}</style></defs><path class="cls-1" d="M625.91,364.38q-20.43-12.19-45.62-12.19-25.83,0-46.72,12.73a89,89,0,0,0-32.85,35.5q-12,22.77-12,51.1,0,28.69,12.12,51.28a87.53,87.53,0,0,0,34.45,35.32q22.32,12.74,51.35,12.73,46.58,0,70.81-31.2L631,487.38a57.39,57.39,0,0,1-19.3,14.16A59.34,59.34,0,0,1,588,506q-19.46,0-32.53-10.4T538.83,467.3H668.65q.95-14,1-15.06,0-30.14-11.64-52.9T625.91,364.38Zm-87.72,70.28q2.55-18.63,14-29.4t28.38-10.76q16.59,0,28.07,10.94t14,29.22Z" transform="translate(-298.15 -268.63)"/><path class="cls-1" d="M877.31,268.63q-13.72,0-22.33,9t-8.61,22.23q0,13.28,8.61,22.23t22.33,9q13.71,0,22.32-9.15t8.62-23.13q0-12.9-8.62-21.51T877.31,268.63Z" transform="translate(-298.15 -268.63)"/><path class="cls-1" d="M385.86,355.05a87.71,87.71,0,0,0-87.71,87.72V550.85h51.42V442.77a36.29,36.29,0,1,1,72.58,0V550.85h51.42V442.77A87.71,87.71,0,0,0,385.86,355.05Z" transform="translate(-298.15 -268.63)"/><path class="cls-1" d="M1010.43,355.05a87.71,87.71,0,0,0-87.71,87.72V550.85h51.42V442.77a36.3,36.3,0,0,1,72.59,0V550.85h51.42V442.77A87.72,87.72,0,0,0,1010.43,355.05Z" transform="translate(-298.15 -268.63)"/><polygon class="cls-1" points="554.28 89.32 552.8 89.32 552.82 89.29 504.97 89.29 455.85 220.54 408.33 89.29 356.98 89.29 429.06 282.22 480.41 282.22 535.84 134.51 554.28 134.51 554.28 282.22 604.04 282.22 604.04 89.32 604.04 89.32 554.28 89.32"/></svg>